# xmcd
#
# Track frame offsets:
#	150
#	24719
#	41576
#	60430
#	79942
#	103255
#	122665
#	138631
#	159076
#	180902
#
# Disc length: 2648 seconds
#
# Revision: 26
# Processed by: cddbd v1.5.2PL0 Copyright (c) Steve Scherf et al.
# Submitted via: Jack! The Knife 20 Magnifico
#
DISCID=7b0a560a
DTITLE=Bon Jovi - Slippery When Wet
DYEAR=1986
DGENRE=Hard Rock
TTITLE0=Let It Rock
TTITLE1=You Give Love A Bad Name
TTITLE2=Livin' On A Prayer
TTITLE3=Social Disease
TTITLE4=Wanted Dead Or Alive
TTITLE5=Raise Your Hands
TTITLE6=Without Love
TTITLE7=I'd Die For You
TTITLE8=Never Say Goodbye
TTITLE9=Wild In The Streets
EXTD=Bruce Fairbairn
EXTT0=Bon Jovi, Sambora
EXTT1=Bon Jovi, Sambora, Child
EXTT2=Bon Jovi, Sambora, Child
EXTT3=Bon Jovi, Sambora
EXTT4=Bon Jovi, Sambora
EXTT5=Bon Jovi, Sambora
EXTT6=Bon Jovi, Sambora, Child
EXTT7=Bon Jovi, Sambora, Child
EXTT8=Bon Jovi, Sambora
EXTT9=John Bon Jovi
PLAYORDER=
